HIERARCHY
ROOT Hips
{
	OFFSET 59.135201 -7.696614 85.619202
	CHANNELS 6 Xposition Yposition Zposition Xrotation Yrotation Zrotation
	JOINT spine
	{
		OFFSET 0.000000 -0.367608 6.392601
		CHANNELS 3 Xrotation Yrotation Zrotation
		JOINT spine1
		{
			OFFSET 0.000000 -0.000001 9.176109
			CHANNELS 3 Xrotation Yrotation Zrotation
			JOINT spine2
			{
				OFFSET 0.000000 -0.000002 8.792381
				CHANNELS 3 Xrotation Yrotation Zrotation
				JOINT Neck
				{
					OFFSET 0.000000 -1.076243 22.573692
					CHANNELS 3 Xrotation Yrotation Zrotation
					JOINT Head
					{
						OFFSET 0.000000 -0.000001 6.820114
						CHANNELS 3 Xrotation Yrotation Zrotation
						End Site
						{
							OFFSET 0.000000 5.444267 16.508499
						}
					}
				}
				JOINT RightShoulder
				{
					OFFSET -3.702209 0.515507 9.495087
					CHANNELS 3 Xrotation Yrotation Zrotation
					JOINT RightArm
					{
						OFFSET 0.000000 -0.000002 12.453697
						CHANNELS 3 Xrotation Yrotation Zrotation
						JOINT RightArmRoll
						{
							OFFSET 0.000000 -0.000001 6.286850
							CHANNELS 3 Xrotation Yrotation Zrotation
							JOINT RightForeArm
							{
								OFFSET 0.000000 -0.000003 18.311401
								CHANNELS 3 Xrotation Yrotation Zrotation
								JOINT RightForeArmRoll
								{
									OFFSET 0.000000 -0.000001 7.054825
									CHANNELS 3 Xrotation Yrotation Zrotation
									JOINT RightHand
									{
										OFFSET 0.000000 -0.000002 14.157501
										CHANNELS 3 Xrotation Yrotation Zrotation
										End Site
										{
											OFFSET 0.000000 0.000000 0.100006
										}
									}
								}
							}
						}
					}
				}
				JOINT LeftShoulder
				{
					OFFSET 3.702209 0.515507 9.495087
					CHANNELS 3 Xrotation Yrotation Zrotation
					JOINT LeftArm
					{
						OFFSET 0.000000 -0.000002 12.453697
						CHANNELS 3 Xrotation Yrotation Zrotation
						JOINT LeftArmRoll
						{
							OFFSET 0.000000 -0.000001 6.286850
							CHANNELS 3 Xrotation Yrotation Zrotation
							JOINT LeftForeArm
							{
								OFFSET 0.000000 -0.000003 18.311401
								CHANNELS 3 Xrotation Yrotation Zrotation
								JOINT LeftForeArmRoll
								{
									OFFSET 0.000000 -0.000001 7.054825
									CHANNELS 3 Xrotation Yrotation Zrotation
									JOINT LeftHand
									{
										OFFSET 0.000000 -0.000002 14.157501
										CHANNELS 3 Xrotation Yrotation Zrotation
										End Site
										{
											OFFSET 0.000000 0.000000 0.100006
										}
									}
								}
							}
						}
					}
				}
			}
		}
	}
	JOINT RightUpLeg
	{
		OFFSET -5.666161 0.871610 -1.039032
		CHANNELS 3 Xrotation Yrotation Zrotation
		JOINT RightUpLegRoll
		{
			OFFSET 0.000000 -0.000003 16.600502
			CHANNELS 3 Xrotation Yrotation Zrotation
			JOINT RightLeg
			{
				OFFSET 0.000000 0.000003 -20.557198
				CHANNELS 3 Xrotation Yrotation Zrotation
				JOINT RightLegRoll
				{
					OFFSET 0.000000 -0.000003 20.624397
					CHANNELS 3 Xrotation Yrotation Zrotation
					JOINT RightFoot
					{
						OFFSET 0.000000 -0.000002 17.166405
						CHANNELS 3 Xrotation Yrotation Zrotation
						JOINT RightToeBase
						{
							OFFSET 0.000000 -0.000002 14.350204
							CHANNELS 3 Xrotation Yrotation Zrotation
							End Site
							{
								OFFSET 0.006081 0.801060 6.949707
							}
						}
					}
				}
			}
		}
	}
	JOINT LeftUpLeg
	{
		OFFSET 5.666161 0.871610 -1.039032
		CHANNELS 3 Xrotation Yrotation Zrotation
		JOINT LeftUpLegRoll
		{
			OFFSET 0.000000 -0.000003 16.600601
			CHANNELS 3 Xrotation Yrotation Zrotation
			JOINT LeftLeg
			{
				OFFSET 0.000000 -0.000003 20.557098
				CHANNELS 3 Xrotation Yrotation Zrotation
				JOINT LeftLegRoll
				{
					OFFSET 0.000000 -0.000003 20.815094
					CHANNELS 3 Xrotation Yrotation Zrotation
					JOINT LeftFoot
					{
						OFFSET 0.000000 -0.000003 16.975693
						CHANNELS 3 Xrotation Yrotation Zrotation
						JOINT LeftToeBase
						{
							OFFSET 0.000000 -0.000002 14.350204
							CHANNELS 3 Xrotation Yrotation Zrotation
							End Site
							{
								OFFSET -0.027260 0.801060 6.949707
							}
						}
					}
				}
			}
		}
	}
}
MOTION
Frames: 10
Frame Time: 0.041667
55.324200 -5.132385 85.606209 -2.608797 1.159348 -1.376780 -1.304849 0.391819 -0.186041 1.394358 0.776423 -0.367054 3.039486 0.771969 -0.376328 10.435253 -7.991350 -0.421969 7.528791 4.124540 -0.094171 -13.910625 -62.719756 -16.545799 -43.787868 -114.749213 -39.224479 -0.000001 -0.000001 -0.000003 6.350730 -15.146214 0.575303 0.000000 0.000001 -3.007940 -5.000199 -7.998782 0.000164 -3.175124 51.685585 2.933544 -33.054253 120.512063 32.567664 -0.000007 -0.000006 0.000004 5.468541 10.710472 0.022506 -0.000004 -0.000006 3.000009 -5.000229 7.998760 -0.000149 0.657413 -177.553158 0.102863 -179.999991 0.000005 -1.070996 172.744719 -3.184357 -0.658185 0.000004 0.000000 0.075409 68.808050 6.874238 2.204472 25.456892 -7.351351 0.016315 1.613071 176.087550 0.656310 -0.000005 -0.000004 -1.107380 -8.222194 1.381111 0.595102 -0.000004 0.000001 -0.172201 71.551955 -6.809860 -2.168557 25.498836 7.348317 -0.063034 
55.326401 -5.139902 85.605286 -2.623084 1.166467 -1.369063 -1.298100 0.391069 -0.183193 1.407839 0.775548 -0.361407 3.052966 0.771161 -0.370671 10.391715 -8.003024 -0.435653 7.550814 4.104661 -0.101227 -14.000387 -62.718513 -16.649933 -43.803612 -114.757478 -39.261754 -0.000003 -0.000002 -0.000005 6.362131 -15.155841 0.578481 0.000000 0.000001 -3.007940 -5.000201 -7.998780 0.000163 -3.171150 51.671488 2.927078 -33.105575 120.535504 32.628558 -0.000006 -0.000005 0.000004 5.428242 10.711171 0.025416 -0.000004 -0.000006 3.000011 -5.000229 7.998762 -0.000151 0.680521 -177.563171 0.098050 -179.999991 0.000005 -1.070996 172.756207 -3.181457 -0.657168 0.000004 0.000000 0.075170 68.805297 6.874210 2.204537 25.456897 -7.351351 0.015144 1.617466 176.078575 0.648866 -0.000005 -0.000004 -1.107380 -8.240236 1.380217 0.595432 -0.000004 0.000001 -0.172248 71.560377 -6.809810 -2.168735 25.498633 7.348309 -0.062659 
55.312000 -5.162343 85.606094 -2.639115 1.174164 -1.361121 -1.290921 0.390248 -0.180199 1.422189 0.774556 -0.355475 3.067307 0.770240 -0.364727 10.345748 -8.014657 -0.449831 7.575633 4.083170 -0.108441 -14.094281 -62.717188 -16.758889 -43.821544 -114.765305 -39.302227 -0.000001 -0.000002 -0.000004 6.374053 -15.165750 0.581782 0.000001 0.000001 -3.007941 -5.000198 -7.998781 0.000163 -3.167734 51.657274 2.921280 -33.162020 120.559355 32.695443 -0.000006 -0.000006 0.000003 5.385132 10.712117 0.028510 -0.000002 -0.000006 3.000010 -5.000232 7.998760 -0.000149 0.705629 -177.575179 0.092943 -179.999991 0.000005 -1.070996 172.767654 -3.177567 -0.657026 0.000004 0.000000 0.074933 68.802763 6.874195 2.204492 25.456895 -7.351351 0.013925 1.623298 176.068589 0.640466 -0.000005 -0.000005 -1.107390 -8.259441 1.379606 0.595796 -0.000004 0.000001 -0.172293 71.569666 -6.809771 -2.168862 25.498331 7.348309 -0.062193 
55.318901 -5.152656 85.606590 -2.656367 1.182249 -1.353013 -1.283441 0.389377 -0.177103 1.437131 0.773482 -0.349341 3.082259 0.769241 -0.358581 10.297960 -8.026254 -0.464396 7.602412 4.060535 -0.115751 -14.191114 -62.715794 -16.871262 -43.838698 -114.774103 -39.342351 -0.000001 -0.000001 -0.000003 6.386320 -15.175948 0.585179 -0.000000 0.000001 -3.007940 -5.000199 -7.998782 0.000163 -3.164693 51.642852 2.915933 -33.221152 120.584012 32.765544 -0.000006 -0.000006 0.000003 5.340062 10.713389 0.031721 -0.000004 -0.000006 3.000010 -5.000227 7.998762 -0.000149 0.732141 -177.587200 0.087643 -179.999991 0.000005 -1.070996 172.779033 -3.173676 -0.656890 0.000004 0.000000 0.074697 68.800448 6.874194 2.204535 25.456895 -7.351352 0.012675 1.630124 176.058590 0.631418 -0.000005 -0.000004 -1.107420 -8.279466 1.379189 0.596184 -0.000004 0.000001 -0.172338 71.579665 -6.809654 -2.169133 25.497924 7.348317 -0.061683 
55.315491 -5.160274 85.605995 -2.674298 1.190563 -1.344813 -1.275780 0.388481 -0.173951 1.452422 0.772363 -0.343093 3.097549 0.768197 -0.352319 10.249261 -8.037825 -0.479164 7.630332 4.037254 -0.123108 -14.289567 -62.714278 -16.985538 -43.856197 -114.783037 -39.383158 -0.000001 -0.000001 -0.000003 6.398810 -15.186340 0.588641 0.000001 0.000000 -3.007940 -5.000198 -7.998781 0.000164 -3.161880 51.628427 2.910858 -33.281900 120.609174 32.837565 -0.000008 -0.000005 0.000003 5.293866 10.714772 0.035015 -0.000001 -0.000006 3.000009 -5.000227 7.998760 -0.000150 0.759458 -177.599221 0.082228 -179.999991 0.000005 -1.070996 172.790412 -3.168795 -0.656645 0.000003 0.000000 0.074462 68.798235 6.874198 2.204575 25.456892 -7.351351 0.011405 1.637544 176.048604 0.621995 -0.000005 -0.000004 -1.107440 -8.299970 1.378880 0.596584 -0.000004 0.000001 -0.172382 71.590102 -6.809525 -2.169374 25.497620 7.348307 -0.061152 
55.305000 -5.156853 85.645096 -2.692412 1.198926 -1.336583 -1.268079 0.387577 -0.170782 1.467793 0.771238 -0.336814 3.112919 0.767146 -0.346028 10.200253 -8.049371 -0.494000 7.658517 4.013794 -0.130458 -14.388389 -62.712652 -17.100275 -43.875366 -114.791315 -39.425867 -0.000001 -0.000001 -0.000004 6.411336 -15.196722 0.592116 0.000000 0.000001 -3.007940 -5.000200 -7.998781 0.000164 -3.159125 51.613889 2.905851 -33.342914 120.634473 32.909918 -0.000005 -0.000006 0.000003 5.247381 10.716153 0.038333 -0.000004 -0.000006 3.000011 -5.000227 7.998761 -0.000150 0.786969 -177.611228 0.076774 -179.999991 0.000005 -1.070996 172.801737 -3.164903 -0.656515 0.000003 0.000000 0.074228 68.796029 6.874239 2.204419 25.456895 -7.351351 0.010135 1.645092 176.037621 0.612448 -0.000005 -0.000004 -1.107470 -8.320575 1.378600 0.596988 -0.000004 0.000001 -0.172427 71.600545 -6.809424 -2.169720 25.497219 7.348314 -0.060601 
55.309994 -5.146925 85.636490 -2.710174 1.207169 -1.328401 -1.260468 0.386688 -0.167643 1.482994 0.770139 -0.330592 3.128119 0.766121 -0.339793 10.151852 -8.060895 -0.508759 7.686150 3.990661 -0.137754 -14.486293 -62.710835 -17.213950 -43.892657 -114.800194 -39.466394 -0.000003 -0.000001 -0.000004 6.423772 -15.207111 0.595571 0.000002 0.000001 -3.007940 -5.000201 -7.998781 0.000163 -3.156252 51.599470 2.900707 -33.403146 120.659595 32.981348 -0.000006 -0.000004 0.000003 5.201467 10.717516 0.041618 -0.000004 -0.000006 3.000011 -5.000228 7.998762 -0.000150 0.814084 -177.623249 0.071362 -179.999991 0.000005 -1.070996 172.813116 -3.161024 -0.655389 0.000004 0.000000 0.073992 68.793809 6.874207 2.204550 25.456899 -7.351352 0.008864 1.652360 176.027635 0.603113 -0.000005 -0.000005 -1.107500 -8.340960 1.378261 0.597385 -0.000004 0.000001 -0.172471 71.610879 -6.809322 -2.169872 25.496917 7.348305 -0.060069 
55.291100 -5.153674 85.647896 -2.727074 1.215123 -1.320325 -1.253069 0.385836 -0.164576 1.497774 0.769102 -0.324514 3.142900 0.765159 -0.333704 10.104555 -8.072422 -0.523295 7.712371 3.968332 -0.144947 -14.582160 -62.709066 -17.325284 -43.909585 -114.808937 -39.506142 -0.000000 -0.000002 -0.000003 6.435940 -15.217207 0.598960 0.000000 0.000001 -3.007940 -5.000198 -7.998781 0.000163 -3.153121 51.585034 2.895248 -33.460158 120.684935 33.049045 -0.000005 -0.000005 0.000003 5.156954 10.718750 0.044801 -0.000004 -0.000006 3.000011 -5.000230 7.998761 -0.000150 0.840193 -177.635257 0.066069 -179.999991 0.000005 -1.070996 172.824536 -3.157132 -0.655257 0.000003 0.000000 0.073756 68.791391 6.874234 2.204506 25.456895 -7.351352 0.007624 1.658904 176.017663 0.594240 -0.000005 -0.000005 -1.107520 -8.360754 1.377785 0.597764 -0.000004 0.000001 -0.172516 71.620681 -6.809228 -2.170159 25.496512 7.348310 -0.059569 
55.287498 -5.149404 85.653793 -2.742589 1.222619 -1.312416 -1.246020 0.385041 -0.161624 1.511856 0.768165 -0.318663 3.156981 0.764290 -0.327842 10.059272 -8.083957 -0.537457 7.736353 3.947288 -0.151991 -14.674568 -62.707093 -17.432610 -43.927289 -114.816696 -39.546136 -0.000003 -0.000000 -0.000003 6.447713 -15.227111 0.602267 0.000003 0.000001 -3.007940 -5.000200 -7.998780 0.000163 -3.149543 51.570834 2.889258 -33.514782 120.708526 33.113911 -0.000006 -0.000006 0.000003 5.114686 10.719646 0.047846 -0.000002 -0.000006 3.000010 -5.000226 7.998760 -0.000149 0.864700 -177.646254 0.060991 -179.999991 0.000005 -1.070996 172.835970 -3.153240 -0.655126 0.000004 0.000000 0.073518 68.788761 6.874246 2.204472 25.456895 -7.351349 0.006424 1.664305 176.008675 0.586134 -0.000005 -0.000005 -1.107530 -8.379609 1.377096 0.598117 -0.000004 0.000001 -0.172562 71.629744 -6.809143 -2.170392 25.496205 7.348311 -0.059122 
55.301598 -5.145355 85.646202 -2.756183 1.229477 -1.304765 -1.239440 0.384323 -0.158833 1.524986 0.767360 -0.313128 3.170122 0.763553 -0.322298 10.016712 -8.095500 -0.551088 7.757230 3.928017 -0.158845 -14.762383 -62.705132 -17.534626 -43.942398 -114.824783 -39.582466 -0.000001 -0.000001 -0.000004 6.458925 -15.236537 0.605414 0.000002 0.000001 -3.007940 -5.000196 -7.998782 0.000164 -3.145369 51.556839 2.882553 -33.564888 120.730861 33.173471 -0.000006 -0.000005 0.000003 5.075515 10.720081 0.050705 -0.000002 -0.000007 3.000010 -5.000226 7.998760 -0.000149 0.887005 -177.656280 0.056209 -179.999991 0.000005 -1.070996 172.847513 -3.150338 -0.655128 0.000003 0.000000 0.073278 68.785804 6.874240 2.204454 25.456894 -7.351351 0.005254 1.668133 175.999700 0.579048 -0.000005 -0.000005 -1.107530 -8.397169 1.376094 0.598431 -0.000004 0.000001 -0.172610 71.637838 -6.809078 -2.170486 25.496002 7.348314 -0.058771 
